<svg width="80" height="80" viewBox="0 0 80 80" fill="none" xmlns="http://www.w3.org/2000/svg">
<path d="M68.2842 11.7156C60.7292 4.16078 50.6844 0 40 0C29.3155 0 19.2705 4.16078 11.7156 11.7156C4.16063 19.2706 0 29.3156 0 40C0 50.6844 4.16063 60.7292 11.7156 68.2842C19.2706 75.8392 29.3155 80 40 80C50.6844 80 60.7292 75.8392 68.2842 68.2842C75.8392 60.7292 80 50.6844 80 40C80 29.3156 75.8392 19.2708 68.2842 11.7156ZM40 75.3125C20.5286 75.3125 4.6875 59.4714 4.6875 40C4.6875 20.5286 20.5286 4.6875 40 4.6875C59.4714 4.6875 75.3125 20.5286 75.3125 40C75.3125 59.4714 59.4714 75.3125 40 75.3125Z" fill="#004DFF"/>
<path d="M59.1111 27.1013C58.1959 26.1863 56.7118 26.1863 55.7967 27.1014L35.1 47.7981L24.2051 36.9033C23.29 35.9881 21.8059 35.9881 20.8906 36.9033C19.9753 37.8185 19.9753 39.3025 20.8906 40.2178L33.4426 52.7699C33.9003 53.2275 34.5001 53.4563 35.0998 53.4563C35.6995 53.4563 36.2995 53.2274 36.757 52.7699L59.1111 30.4158C60.0264 29.5006 60.0264 28.0166 59.1111 27.1013Z" fill="#004DFF"/>
</svg>
