<svg width="80" height="80" viewBox="0 0 80 80" fill="none" xmlns="http://www.w3.org/2000/svg">
<g opacity="0.92" clip-path="url(#clip0_26_65)">
<path d="M75.0804 17.5274L60.7723 3.16358C56.5542 -1.05453 51.4813 -1.05453 47.2818 3.16358L25.7825 24.7001C24.4021 26.0772 24.3997 28.3126 25.7769 29.693C25.7787 29.6949 25.7806 29.6968 25.7825 29.6986L30.6138 34.5299L24.9091 40.1788C24.3656 40.7231 24.3656 41.6043 24.9091 42.1485L26.3585 43.5979L2.20195 67.7545C1.94506 68.0109 1.79826 68.3577 1.79315 68.7207L1.75598 78.5878C1.74576 79.3573 2.36129 79.9895 3.13082 79.9998C3.13709 79.9998 3.14336 79.9998 3.14963 79.9998V79.9626H10.9541C11.3236 79.9624 11.6778 79.8153 11.9389 79.5538L16.3242 75.1684C16.5767 74.9164 16.7231 74.5773 16.733 74.2208L16.8631 69.7425L20.5795 70.2071C21.003 70.2603 21.4275 70.1165 21.7316 69.8168L24.5003 67.0481C24.7321 66.8198 24.8768 66.5174 24.9091 66.1934L25.2993 62.1611L30.1678 61.0833C30.7197 60.9644 31.1452 60.524 31.2456 59.9684L32.2118 54.5982L37.4148 53.7806C37.7033 53.7337 37.9699 53.5971 38.1766 53.3904L43.8627 47.7043L48.694 52.5356C50.0712 53.916 52.3066 53.9184 53.687 52.5412C53.6889 52.5393 53.6907 52.5375 53.6926 52.5356L75.0804 31.0177C79.2985 26.7998 79.2985 21.727 75.0804 17.5274ZM36.5043 51.1236L30.781 52.0341C30.1948 52.128 29.7323 52.583 29.6289 53.1676L28.6255 58.5378L23.6827 59.6342C23.0964 59.7677 22.6621 60.262 22.6049 60.8606L22.159 65.4132L20.3008 67.2713L15.6181 66.7696C14.8539 66.677 14.1594 67.2209 14.0665 67.9851C14.0617 68.0258 14.0584 68.0667 14.057 68.1075L13.9084 73.5706L10.322 77.157H4.46872L4.6917 69.2968L29.3314 44.5828C29.8749 44.0386 29.8749 43.1573 29.3314 42.6131L27.882 41.1637L32.5832 36.4625L41.8742 45.7534L36.5043 51.1236ZM73.2222 29.0483L51.6671 50.529C51.3791 50.8214 50.9085 50.8252 50.6161 50.5371C50.6133 50.5346 50.6108 50.5318 50.608 50.529L44.7918 44.7314L33.6426 33.5823L27.8265 27.7661C27.4783 27.5487 27.3724 27.0902 27.5898 26.742C27.6335 26.6723 27.6883 26.6101 27.7522 26.5583L49.2515 5.13327C50.4523 3.73799 52.1702 2.89251 54.0085 2.79194C55.8527 2.90947 57.576 3.751 58.8026 5.13327L73.2222 19.4971C75.3963 21.6712 77.1616 25.0717 73.2222 29.0483Z" fill="white" stroke="white" stroke-width="0.713663"/>
<path d="M67.1783 24.175C67.156 24.151 67.1328 24.1278 67.1089 24.1055L54.1944 11.1911C53.6697 10.628 52.7878 10.5969 52.2247 11.1216C51.6617 11.6463 51.6306 12.5283 52.1553 13.0913C52.1776 13.1152 52.2008 13.1384 52.2247 13.1607L65.1392 26.0752C65.6639 26.6382 66.5459 26.6694 67.1089 26.1447C67.6719 25.62 67.703 24.7382 67.1783 24.175Z" fill="white"/>
</g>
<defs>
<clipPath id="clip0_26_65">
<rect width="80" height="80" fill="white"/>
</clipPath>
</defs>
</svg>
