<svg width="24" height="24" viewBox="0 0 24 24" fill="none" xmlns="http://www.w3.org/2000/svg">
<path d="M8.59247 22.085C16.5267 22.085 20.865 15.5104 20.865 9.81241C20.865 9.62457 20.865 9.43672 20.8561 9.25782C21.6969 8.64956 22.4304 7.88924 23.0118 7.02157C22.2426 7.36148 21.4107 7.59405 20.5341 7.70139C21.4286 7.16469 22.1084 6.32386 22.4304 5.31308C21.5985 5.80505 20.6772 6.16285 19.6932 6.35964C18.9061 5.51881 17.7879 5 16.5446 5C14.1652 5 12.2331 6.93212 12.2331 9.31149C12.2331 9.6514 12.2689 9.98237 12.3494 10.2954C8.76243 10.1165 5.58695 8.3991 3.45804 5.78716C3.09129 6.42226 2.87661 7.16469 2.87661 7.95185C2.87661 9.44567 3.63694 10.7695 4.79979 11.5388C4.09313 11.5209 3.4312 11.3241 2.84978 11.0021C2.84978 11.02 2.84978 11.0379 2.84978 11.0558C2.84978 13.1489 4.33465 14.8842 6.31149 15.2868C5.95369 15.3852 5.56906 15.4388 5.17548 15.4388C4.89818 15.4388 4.62983 15.412 4.36148 15.3583C4.90713 17.0758 6.49934 18.3191 8.38674 18.3549C6.91081 19.5088 5.05025 20.1976 3.02868 20.1976C2.67982 20.1976 2.33991 20.1797 2 20.135C3.8874 21.3694 6.15943 22.085 8.59247 22.085Z" fill="#4A4863"/>
</svg>
