<svg width="80" height="80" viewBox="0 0 80 80" fill="none" xmlns="http://www.w3.org/2000/svg">
<mask id="path-1-inside-1_26_63" fill="white">
<path fill-rule="evenodd" clip-rule="evenodd" d="M0 32.5C0 50.42 14.58 65 32.5 65C40.2621 65 47.3976 62.2644 52.993 57.7068L74.3094 79.0233C74.9594 79.6733 75.8128 79.9999 76.6661 79.9999C77.5194 79.9999 78.3728 79.6733 79.0228 79.0233C80.3261 77.7199 80.3261 75.6133 79.0228 74.3099L57.7064 52.9935C62.2643 47.3981 65 40.2624 65 32.5C65 14.58 50.42 0 32.5 0C14.58 0 0 14.58 0 32.5ZM6.66667 32.5C6.66667 18.2567 18.2567 6.66667 32.5 6.66667C46.7433 6.66667 58.3333 18.2567 58.3333 32.5C58.3333 46.7433 46.7433 58.3333 32.5 58.3333C18.2567 58.3333 6.66667 46.7433 6.66667 32.5Z"/>
</mask>
<path fill-rule="evenodd" clip-rule="evenodd" d="M0 32.5C0 50.42 14.58 65 32.5 65C40.2621 65 47.3976 62.2644 52.993 57.7068L74.3094 79.0233C74.9594 79.6733 75.8128 79.9999 76.6661 79.9999C77.5194 79.9999 78.3728 79.6733 79.0228 79.0233C80.3261 77.7199 80.3261 75.6133 79.0228 74.3099L57.7064 52.9935C62.2643 47.3981 65 40.2624 65 32.5C65 14.58 50.42 0 32.5 0C14.58 0 0 14.58 0 32.5ZM6.66667 32.5C6.66667 18.2567 18.2567 6.66667 32.5 6.66667C46.7433 6.66667 58.3333 18.2567 58.3333 32.5C58.3333 46.7433 46.7433 58.3333 32.5 58.3333C18.2567 58.3333 6.66667 46.7433 6.66667 32.5Z" fill="#004DFF"/>
<path d="M52.993 57.7068L53.5337 57.1661L53.0454 56.6779L52.5101 57.114L52.993 57.7068ZM79.0228 79.0233L79.5635 79.564V79.5639L79.0228 79.0233ZM79.0228 74.3099L79.5635 73.7692L79.0228 74.3099ZM57.7064 52.9935L57.1135 52.5106L56.6774 53.046L57.1657 53.5342L57.7064 52.9935ZM32.5 64.2354C15.0023 64.2354 0.764639 49.9977 0.764639 32.5H-0.764639C-0.764639 50.8423 14.1577 65.7646 32.5 65.7646V64.2354ZM52.5101 57.114C47.0457 61.5649 40.0793 64.2354 32.5 64.2354V65.7646C40.445 65.7646 47.7496 62.964 53.4759 58.2997L52.5101 57.114ZM74.8501 78.4826L53.5337 57.1661L52.4523 58.2475L73.7688 79.5639L74.8501 78.4826ZM76.6661 79.2353C76.0078 79.2353 75.3513 78.9838 74.8501 78.4826L73.7688 79.5639C74.5676 80.3628 75.6178 80.7646 76.6661 80.7646V79.2353ZM78.4821 78.4826C77.9809 78.9838 77.3245 79.2353 76.6661 79.2353V80.7646C77.7144 80.7646 78.7646 80.3628 79.5635 79.564L78.4821 78.4826ZM78.4821 74.8506C79.4868 75.8553 79.4868 77.4779 78.4821 78.4826L79.5635 79.5639C81.1654 77.962 81.1654 75.3712 79.5635 73.7692L78.4821 74.8506ZM57.1657 53.5342L78.4821 74.8506L79.5635 73.7692L58.247 52.4528L57.1657 53.5342ZM64.2354 32.5C64.2354 40.0796 61.5647 47.0462 57.1135 52.5106L58.2992 53.4764C62.9638 47.75 65.7646 40.4452 65.7646 32.5H64.2354ZM32.5 0.764639C49.9977 0.764639 64.2354 15.0023 64.2354 32.5H65.7646C65.7646 14.1577 50.8423 -0.764639 32.5 -0.764639V0.764639ZM0.764639 32.5C0.764639 15.0023 15.0023 0.764639 32.5 0.764639V-0.764639C14.1577 -0.764639 -0.764639 14.1577 -0.764639 32.5H0.764639ZM32.5 5.90203C17.8344 5.90203 5.90203 17.8344 5.90203 32.5H7.43131C7.43131 18.679 18.679 7.43131 32.5 7.43131V5.90203ZM59.098 32.5C59.098 17.8344 47.1656 5.90203 32.5 5.90203V7.43131C46.321 7.43131 57.5687 18.679 57.5687 32.5H59.098ZM32.5 59.098C47.1656 59.098 59.098 47.1656 59.098 32.5H57.5687C57.5687 46.321 46.321 57.5687 32.5 57.5687V59.098ZM5.90203 32.5C5.90203 47.1656 17.8344 59.098 32.5 59.098V57.5687C18.679 57.5687 7.43131 46.321 7.43131 32.5H5.90203Z" fill="white" mask="url(#path-1-inside-1_26_63)"/>
</svg>
